<?xml version="1.0" encoding="utf-8"?>
<!-- Generator: Adobe Illustrator 25.2.0, SVG Export Plug-In . SVG Version: 6.00 Build 0)  -->
<svg version="1.1" id="Livello_1" xmlns="http://www.w3.org/2000/svg" xmlns:xlink="http://www.w3.org/1999/xlink" x="0px" y="0px"
	 viewBox="0 0 238.3 299.1" style="enable-background:new 0 0 238.3 299.1;" xml:space="preserve">
<style type="text/css">
	.st0{fill:#1A1A1A;}
</style>
<g id="Livello_2_1_">
	<g id="Livello_1-2">
		<path class="st0" d="M209.5,167.9c0,29.2,0,58.4,0,87.6c0,7.6,0.1,7.6-7.3,7.6c-56.1-0.5-112.3-1.1-168.4-1.6
			c-3.6,0-4.4-0.9-4.3-4.8c0.2-8.7-0.8-17.4-0.8-26.1c0-33,0.3-66,0.5-99c0.1-24.9,0.1-49.8,0.3-74.7c0-5.2,0.5-10.3,0.7-15.5
			c0.2-4.3,1.2-5.3,5.5-5.2c11.5,0.3,23,0.8,34.5,0.9c24.3,0.3,48.6,0.6,72.8,0.7c8.7,0,17.4-0.6,26.1-0.7c1.7,0,3.6,1.2,5,2.4
			c5.4,4.8,10.7,9.6,15.8,14.7c5.9,5.9,11.7,11.9,17.1,18.2c1.5,1.8,2.3,4.8,2.3,7.3c0.2,29.4,0.1,58.9,0.1,88.4L209.5,167.9z
			 M166.1,41.3H34c0,71.5-2.3,143.4-0.3,215.5L205,259V80.2c-2-0.4-4-0.6-6-0.8c-9.6-0.2-19.2-0.4-28.8-0.3c-3.2,0-4.2-0.9-4.2-4.1
			C166.2,63.9,166.1,52.7,166.1,41.3z M170.5,42.1V75h34.4L170.5,42.1z"/>
		<path class="st0" d="M137.8,145.6c-0.2,0.6-0.7,1.1-1.2,1.5c-0.6,0.5-1.8,0.9-3.6,1.3s-3.1,0.6-3.8,0.7c0.7,3.2,1,4.7,1,4.7
			c0.6,2.1,1.2,5,1.9,8.7c1.5,8.5,3.1,15.7,4.7,21.7c0.3,1.1,0.5,2.3,0.6,3.4c0,0.8-0.4,1.6-1,2.1c-0.7,0.6-1.5,0.9-2.4,0.9
			s-1.8-0.5-2.3-1.3c-0.6-0.7-1-1.5-1.4-2.3c-0.8-2.9-1.4-6-2.1-9.6c-0.6-3.5-1.4-7.8-2.2-12.7c-0.3-2.2-0.9-4.9-1.6-8.1
			c-0.8-3.2-1.3-5.3-1.5-6.4c-5,0.7-13.5,2-25.6,4l-7.3,1.3l-2.6,7.4L83.8,173c-2.9,9.1-5,16.2-6.3,21.2c-0.2,1.1-0.7,2.1-1.5,3
			c-0.7,0.8-1.7,1.2-2.8,1.2c-0.8,0-1.7-0.2-2.3-0.8c-0.6-0.5-1-1.3-0.9-2.1c0-0.9,0.5-2.9,1.5-5.9s1.6-4.8,1.8-5.3
			c0.3-0.8,1-2.8,2-5.8c1.1-3.3,2.5-7.2,4.2-11.9s2.9-7.7,3.5-9.3c-4.3,1-7.5,1.8-9.6,2.4c-1.9,0.6-3.9,1-5.9,1.3
			c-0.8,0.1-1.6-0.4-2.1-1.1c-0.5-0.7-0.7-1.5-0.7-2.3c-0.1-0.8,0.2-1.5,0.8-2.1c0.8-0.5,1.6-0.9,2.5-1.1c3.2-0.8,6.6-1.5,10.1-2.3
			s6-1.3,7.4-1.5c0.8-2.4,1.5-4.5,1.9-6.2c0.3-1.1,0.8-2.4,1.3-4.1c0.5-1.6,1.2-3.7,1.8-6.1l1.9-6.4c3.2-11.3,5-17.7,5.5-19.3
			c0.3-1,0.7-1.9,1.2-2.8c0.3-0.6,0.9-1,1.6-1c1.6,0,3.1,0.2,4.6,0.8c0.3-0.3,0.6-0.7,0.8-1.1c0.3-0.5,0.7-0.9,1.3-1.1
			c0.6-0.2,1.2-0.3,1.8-0.3c1.5,0,3.3,1.7,5.2,5.2c2.2,3.9,4.1,8,5.7,12.2c1.1,2.8,2.5,6.9,4.2,12.4c1.7,5.5,2.8,9.1,3.3,10.9
			c1.1-0.1,2.2-0.4,3.2-0.7l1.7-0.6c0.5-0.2,1-0.5,1.4-0.9s0.9-0.7,1.4-0.9c0.4-0.2,1-0.2,1.4,0.1c1.1,0.5,1.6,1.6,1.6,3.1
			C138.2,144.4,138.1,145,137.8,145.6z M119.1,135.1c-1.3-4.8-2.6-8.7-3.8-11.8c-1.3-3.3-2.8-6.5-4.6-9.6c-1.8-3.3-3.4-5.3-4.7-6.2
			l-1.4,3.3c-1.4,2.8-2.6,5.7-3.6,8.7c-2,6.1-5.2,16.1-9.6,30l14.7-2.5l12.1-1.9l3.4-0.5C121.3,143.1,120.5,140,119.1,135.1z"/>
		<path class="st0" d="M148.3,106.1c-1.6-0.1-3.1-0.7-4.3-1.7c-1.4-1.2-2.2-2.2-2.2-2.9c0-1,0.5-2,1.3-2.6c0.7-0.7,1.7-1.2,2.7-1.2
			c1.2,0.4,2.3,1.1,3.1,2c0.8,0.8,1.6,1.7,2.3,2.6c0.5,0.6,1,1.3,1.3,2C152.5,105.5,151.1,106.1,148.3,106.1z M154.6,185.4
			c-0.7,0.5-1.6,0.7-2.5,0.6c-1.2-0.1-2-2-2.6-5.7c-0.5-3.7-1.1-10.7-1.7-21c-0.3-6.8-0.6-13.5-0.9-20c-0.3-6.5-0.4-11.5-0.5-15.1
			c0-0.7,0.1-1.4,0.4-2.1c0.4-0.5,1.1-0.8,1.7-0.7c1.9,0,3.1,0.8,3.7,2.4c0.5,1.6,0.8,4.7,0.8,9.2l-0.1,14.9
			c0,8.5,0.3,15.3,0.8,20.4c0,0.3,0.4,2.9,1.1,8.1c0.4,2.3,0.7,4.7,0.9,7C155.7,184.2,155.3,185,154.6,185.4L154.6,185.4z"/>
	</g>
</g>
</svg>
