<?xml version="1.0" encoding="utf-8"?>
<!-- Generator: Adobe Illustrator 25.2.0, SVG Export Plug-In . SVG Version: 6.00 Build 0)  -->
<svg version="1.1" id="Livello_1" xmlns="http://www.w3.org/2000/svg" xmlns:xlink="http://www.w3.org/1999/xlink" x="0px" y="0px"
	 viewBox="0 0 238.3 299.1" style="enable-background:new 0 0 238.3 299.1;" xml:space="preserve">
<style type="text/css">
	.st0{fill:#1A1A1A;}
</style>
<g id="Livello_2_1_">
	<g id="Livello_1-2">
		<path class="st0" d="M209.5,167.9c0,29.2,0,58.4,0,87.6c0,7.6,0.1,7.6-7.3,7.6c-56.1-0.5-112.3-1.1-168.4-1.6
			c-3.6,0-4.4-0.9-4.3-4.8c0.2-8.7-0.8-17.4-0.8-26.1c0-33,0.3-66,0.5-99c0.1-24.9,0.1-49.8,0.3-74.7c0-5.2,0.5-10.3,0.7-15.5
			c0.2-4.3,1.2-5.3,5.5-5.2c11.5,0.3,23,0.8,34.5,0.9c24.3,0.3,48.6,0.6,72.8,0.7c8.7,0,17.4-0.6,26.1-0.7c1.7,0,3.6,1.2,5,2.4
			c5.4,4.8,10.7,9.6,15.8,14.7c5.9,5.9,11.7,11.9,17.1,18.2c1.5,1.8,2.3,4.8,2.3,7.3c0.2,29.4,0.1,58.9,0.1,88.4L209.5,167.9z
			 M166.1,41.3H34c0,71.5-2.3,143.4-0.3,215.5L205,259V80.2c-2-0.4-4-0.6-6-0.8c-9.6-0.2-19.2-0.4-28.8-0.3c-3.2,0-4.2-0.9-4.2-4.1
			C166.2,63.9,166.1,52.7,166.1,41.3z M170.5,42.1V75h34.4L170.5,42.1z"/>
		<path class="st0" d="M82.9,219.1c-0.5,0.5-1.1,0.8-1.8,0.8c-0.5,0-1-0.1-1.5-0.4c-0.4-0.2-0.6-0.6-0.6-1.1l0.2-6
			c0.3-7.1,0.4-12.9,0.4-17.3c0-6.6-0.5-11.2-1.4-13.8s-2-3.9-3.2-3.9c-2.7,0-6.1,4.2-10.2,12.5c-4.1,8.4-8,17.5-11.8,27.3
			c-0.3,0.8-0.7,1.6-1.2,2.3c-0.5,0.8-1,1.1-1.5,1.1c-1.3,0-1.9-0.4-1.9-1.2c0-3.5-0.1-10.1-0.4-19.7c-0.3-9.6-0.5-16-0.7-19
			c-0.5-10.3-1-16.7-1.5-19.1c-0.5-2.4-0.7-3.7-0.7-3.9c0-0.6,0.4-1.1,0.9-1.3c0.8-0.3,1.6-0.5,2.4-0.4c0.8,0,1.4,1.8,1.8,5.5
			c0.4,3.7,0.6,8.3,0.8,14.1l0.1,2.4c0.1,1.8,0.2,6.9,0.3,15.3c0.1,8.4,0.1,14.6,0.1,18.6c2.6-6.6,5.1-12.5,7.5-17.7
			c2.3-5.1,5-9.9,8.1-14.5c3-4.5,5.9-6.8,8.5-6.8c2.2,0,4,1.8,5.5,5.5s2.3,9.1,2.3,16.3c0,3.2,0.1,7.7,0.2,13.5l0.1,9.1
			C83.6,218,83.4,218.6,82.9,219.1z"/>
		<path class="st0" d="M126,182.6c-1.4,0.7-3,1.1-4.6,1.2l-8.9,1.5l-5.6,1c0,3,0,6.1,0.1,9.4c0.1,3.3,0.2,6.2,0.4,8.6
			c0.1,2.6,0.5,5.2,1.2,7.7c0.6,1.8,0.9,2.8,0.9,3c-0.1,0.7-0.5,1.3-1.1,1.6c-0.6,0.4-1.3,0.7-2,0.8c-0.3,0-0.6-0.1-0.9-0.3
			c-0.3-0.3-0.5-0.6-0.6-1c-0.5-1.5-0.8-3-1-4.5c-0.3-2.2-0.6-4.6-0.8-7.2c-0.2-2.4-0.3-5.1-0.4-8.2c-0.1-3.1-0.1-6.2-0.1-9.1
			c-3.2,0.5-6.5,1.1-9.9,1.9c-1.8,0.4-3.6,0.7-5.4,0.9c-0.7,0-1.4-0.2-1.9-0.6c-0.6-0.3-0.9-1-0.9-1.6c-0.1-0.6,0.2-1.2,0.8-1.5
			c0.8-0.3,1.7-0.4,2.6-0.3c1.3,0,2.5-0.2,3.8-0.5c1.7-0.3,2.7-0.5,3.2-0.6c3.8-0.7,6.5-1.2,7.8-1.5c0-1.2-0.1-2.8-0.2-4.7
			c-0.1-2.6-0.2-4.7-0.2-6.1c0-1.7,0-3.5,0.2-5.2c0.1-1.1,0.4-2.3,0.8-3.3c0.4-1.1,1.4-1.8,2.6-1.7c0.4,0,0.7,0,1,0.3
			c0.2,0.3,0.3,0.6,0.3,0.9c-0.1,1-0.2,2-0.4,3c-0.3,2.2-0.5,4.4-0.4,6.6c0,2.1,0.1,4.6,0.2,7.2l0.1,2.3c2.6-0.4,7.7-1.5,15.3-3.2
			c0.6-0.2,1-0.6,1.2-1.2c0.3-0.7,0.7-1,1-1c0.8,0.1,1.5,0.5,1.9,1.1c0.6,0.6,1,1.4,1,2.2C127.2,181.3,126.8,182.2,126,182.6z"/>
		<path class="st0" d="M180.2,217c-0.5,0.5-1.1,0.8-1.8,0.8c-0.8,0.1-1.4-0.5-1.5-1.2c0-0.1,0-0.2,0-0.3c0-11.6-0.4-20.5-1.1-26.7
			s-2.1-9.3-3.9-9.3c-3.1,0-7.7,10.8-13.7,32.5v0.1c0,0.7-0.2,1.3-0.7,1.8s-1.1,0.8-1.8,0.8c-0.8,0.1-1.4-0.4-1.6-1.2
			c0-0.1,0-0.2,0-0.3c0-2.3,0.1-5.9,0.3-10.7c0.2-5.4,0.3-9.7,0.3-12.8c0.1-3.1-0.1-6.1-0.4-9.2c-0.3-1.8-0.8-2.7-1.7-2.7
			c-2,0-4.4,3.6-7.4,10.7c-3,7.2-6.1,15.6-9.4,25.3l-0.8,2.3c-0.2,0.6-0.6,1.1-1,1.5s-0.9,0.6-1.4,0.6s-0.9,0-1.4-0.2
			c-0.2-0.1-0.4-0.5-0.4-1c-0.3-2.8-0.5-6.6-0.7-11.3c-0.1-1.2-0.2-3.2-0.3-5.9c-0.6-9.7-1.1-16.3-1.5-19.7
			c-0.4-3.4-0.7-5.4-0.7-5.7c0.1-0.6,0.3-1.2,0.7-1.6c0.5-0.6,0.9-0.9,1.3-0.9c0.9,0,1.7,0.7,2.3,2c0.3,0.6,0.6,3.2,0.9,7.6
			s0.6,9.9,0.9,16.5l0.4,13.2c3.2-9.8,6.4-18.6,9.9-26.6c3.4-8,6.5-11.9,9.3-11.9c1.9,0,3.2,1.4,3.9,4.1s1,6.8,1,12
			c0,2.8-0.1,6.7-0.2,11.9l-0.1,4c1.9-7,4.3-13.9,7-20.7c2.3-5.6,4.7-8.3,7-8.3c5.9,0,8.9,13.1,8.9,39.3
			C180.9,216,180.6,216.6,180.2,217z"/>
		<path class="st0" d="M193.1,215.1c-0.8,0.4-1.6,0.5-2.5,0.5c-0.7,0-1.3-0.8-1.9-2.5s-0.9-4.1-0.9-7.5c0.1-6.5,0.2-14.3,0.3-23.5
			c0.2-9.2,0.3-16.1,0.4-20.8c0-1.6,0.3-3.2,0.9-4.7c0.4-1.3,1.5-2.2,2.9-2.2c0.4,0,0.8,0.3,0.9,0.8c0.2,0.9,0.3,1.9,0.2,2.8
			c0,0.1,0,0.3,0,0.6s0,0.9,0,1.7c-1,15.1-1.5,29.9-1.5,44.2c0,2,0.5,4,1.3,5.9c0.8,2.1,1.2,3.2,1.2,3.3
			C194.2,214.3,193.8,214.8,193.1,215.1z"/>
		<path class="st0" d="M90.8,117.1c-1.1,1.7-2.3,3.3-3.6,4.8c-2.4,3-5.1,5.8-8.1,8.3c-2.1,1.8-4.7,2.9-7.5,2.9
			c-2.2,0-4.2-1.1-5.4-2.8c-1.4-1.9-2.2-4.2-2.1-6.6c0-3.7,1-8.3,2.9-14c1.7-5.2,4.2-10.1,7.4-14.6c3-4.1,6-6.2,9-6.2
			c1.2,0,2.4,0.5,3.3,1.4c0.6,0.6,1.1,1.3,1.5,2.1c0.4,0.7,0.6,1.5,0.7,2.3c0,1.1-0.1,2.3-0.4,3.4c-0.3,1.3-0.5,1.9-0.8,1.9
			c-0.6,0-1-0.4-1.1-0.9c-0.2-0.8-0.3-1.6-0.3-2.5c-0.1-1-0.3-2-0.5-3c-0.2-0.5-0.4-0.8-0.8-0.8c-2.7,0-5.3,1.9-7.9,5.6
			c-2.7,4.1-4.8,8.5-6.2,13.1c-1.6,5-2.4,8.8-2.4,11.5c0,3.8,1.3,5.7,3.8,5.7c1.8,0,3.5-0.5,5-1.4c1.7-1.1,3.4-2.4,4.8-3.9
			c2.6-2.6,5-5.3,7.2-8.2c0.1-0.2,0.4-0.6,1-1.3c0.5-0.7,0.9-1.1,1.2-1.1c0.7,0,1,0.3,1,0.8C92.6,114.3,92,115.4,90.8,117.1z"/>
		<path class="st0" d="M123,128.1c-2.2,2.5-5,4.4-8.1,5.6c-3.3,1.4-6.8,2.1-10.4,2.1c-2.5,0-4.1-0.2-5-0.7c-0.8-0.3-1.3-1.1-1.3-1.9
			c0-0.5,0.7-1.4,2-2.7s2.2-1.9,2.7-1.9c0.7,0,1,0.1,1,0.4c0,0.3-0.2,0.5-0.4,0.7c-0.3,0.2-0.4,0.4-0.4,0.6c0,0.2,0.4,0.5,1.1,0.7
			c0.9,0.2,1.7,0.4,2.6,0.3c2.5,0,5-0.5,7.3-1.3c2.2-0.8,4.2-1.9,6-3.5c1.5-1.4,2.3-3,2.3-4.6c0.1-1.4-0.5-2.7-1.5-3.7
			s-2.3-1.7-3.7-2c-1.5-0.4-3.9-1-7.4-1.9c-3.8-0.9-6.7-1.6-8.8-2.3c-1.8-0.5-3.5-1.4-5-2.5c-1.2-0.9-1.9-2.3-1.9-3.8
			c0-2.8,1.4-5.3,4.1-7.6c2.8-2.3,5.9-4.2,9.3-5.4c3.5-1.3,6.2-2,8.1-2s2.9,0.6,2.9,1.7c0,0.8-0.3,1.6-0.7,2.3
			c-0.4,0.8-1.2,1.2-2.1,1.2c-0.4,0-0.8-0.2-1.1-0.4c-0.4-0.2-0.8-0.4-1.2-0.4c-1.9,0.1-3.7,0.5-5.4,1.1c-2.4,0.7-4.7,1.9-6.7,3.4
			s-3,3.3-3,5.4c0,1.4,0.8,2.4,2.4,3c2.9,1,5.8,1.9,8.8,2.5c0.5,0.2,1,0.3,1.5,0.4s0.9,0.2,1.4,0.3c4.4,1,7.8,2.2,10.2,3.5
			c2.2,1.1,3.6,3.4,3.5,6C126,123.4,125,125.8,123,128.1z"/>
		<path class="st0" d="M157.9,128.1c-2.2,2.5-5,4.4-8.1,5.6c-3.3,1.4-6.8,2.1-10.4,2.1c-2.5,0-4.1-0.2-5-0.7
			c-0.8-0.3-1.3-1.1-1.3-1.9c0-0.5,0.7-1.4,2-2.7s2.2-1.9,2.7-1.9c0.7,0,1,0.1,1,0.4c0,0.3-0.2,0.5-0.4,0.7
			c-0.3,0.2-0.4,0.4-0.4,0.6c0,0.2,0.4,0.5,1.1,0.7c0.9,0.2,1.7,0.4,2.6,0.3c2.5,0,5-0.5,7.3-1.3c2.2-0.8,4.2-1.9,6-3.5
			c1.6-1.4,2.3-3,2.3-4.6c0.1-1.4-0.5-2.7-1.5-3.7s-2.3-1.7-3.7-2c-1.5-0.4-3.9-1-7.4-1.9c-3.8-0.9-6.7-1.6-8.8-2.3
			c-1.8-0.5-3.5-1.4-5-2.5c-1.2-0.9-1.9-2.3-1.9-3.8c0-2.8,1.4-5.3,4.1-7.6c2.8-2.3,5.9-4.2,9.3-5.4c3.5-1.3,6.2-2,8.1-2
			c1.9,0,2.9,0.6,2.9,1.7c0,0.8-0.3,1.6-0.7,2.3c-0.4,0.8-1.2,1.2-2.1,1.2c-0.4,0-0.8-0.2-1.1-0.4c-0.4-0.2-0.8-0.4-1.2-0.4
			c-1.9,0.1-3.7,0.5-5.4,1.1c-2.4,0.7-4.7,1.9-6.7,3.4s-3,3.3-3,5.4c0,1.4,0.8,2.4,2.4,3c2.9,1,5.8,1.9,8.9,2.5
			c0.5,0.2,1,0.3,1.5,0.4s0.9,0.2,1.4,0.3c3.5,0.7,7,1.9,10.2,3.5c2.2,1.1,3.6,3.5,3.5,6C160.9,123.4,159.9,125.8,157.9,128.1z"/>
	</g>
</g>
</svg>
