<?xml version="1.0" encoding="utf-8"?>
<!-- Generator: Adobe Illustrator 25.2.0, SVG Export Plug-In . SVG Version: 6.00 Build 0)  -->
<svg version="1.1" id="Livello_1" xmlns="http://www.w3.org/2000/svg" xmlns:xlink="http://www.w3.org/1999/xlink" x="0px" y="0px"
	 viewBox="0 0 60 60" style="enable-background:new 0 0 60 60;" xml:space="preserve">
<style type="text/css">
	.st0{fill:#1A1A1A;}
	.st1{fill:#FFFFFF;}
</style>
<g id="Livello_1-2">
	<path class="st0" d="M8.4,33.8c0-0.3,1.3-12.3,1.4-12.9c0.4-2.9,1.2-5.8,2.6-8.5c2.2-4.1,5.6-6.8,10.1-8C27.6,3,32.7,3.1,37.7,4.8
		c4.3,1.5,7.3,4.4,9.2,8.5c1.2,2.6,1.8,5.3,2.2,8c0,0.2,0.2,0.5,0.3,0.6c1.3,0.8,2,2,2.3,3.4c0.5,1.9,0.5,3.8-0.1,5.7
		c-0.2,0.6-0.4,1.2-0.8,1.6c-0.5,0.5-0.5,0.9-0.5,1.5c0.1,2.2,3.2,18.5-4.3,19.1c-1.7-0.1-3.4-0.2-5.1-0.5c-0.8-0.1-1.4,0-2,0.5
		c-5.1,3.7-10.6,4.3-16.4,1.8c-1.1-0.5-2.1-1.2-3.1-1.9c-0.5-0.4-0.9-0.5-1.5-0.4c-1.5,0.2-3,0.4-4.5,0.5
		C10.5,53.4,6.5,50.9,8.4,33.8z M17.1,40.1c1.4,1.8,3.1,3.3,4.9,4.5c3.3,2.3,6.9,2.9,10.7,1.9c4.2-1.2,7.3-4.1,9.8-7.6
		c1.2-1.7,1.8-3.6,2.1-5.7c0.2-1.3,0.7-1.8,2-2c0.2,0,0.3-0.1,0.5-0.1c0.8-0.1,1.3-0.6,1.4-1.4c0.2-1.3,0.2-2.6-0.2-3.8l0,0
		c-0.1-0.4-0.6-0.7-1-0.5c-0.1,0-0.3,0.1-0.3,0.2c-0.4,0.5-0.9,0.5-1.5,0.4c-0.7-0.2-1.1-0.7-1.2-1.4c-0.3-1.6-0.7-3.1-1-4.7
		c-0.1-0.6-0.3-1.1-0.5-1.7c-0.6-1.8-2-2.4-3.5-3.4C37.1,13.6,31,10,29.6,10c-1.6,0-7,3.6-10,4.9c-1.2,0.6-2.8,1.3-3.3,2.5
		C15.6,19.5,12.7,33.9,17.1,40.1z"/>
	<path class="st0" d="M35.5,28.3c-1.6,0-2.9-1.3-2.9-3c0,0,0,0,0-0.1c0-1.6,1.3-2.9,3-2.9c1.6,0,2.9,1.3,2.9,3
		C38.5,27.1,37.1,28.3,35.5,28.3z"/>
	<path class="st0" d="M23.2,22.4c1.6,0,3,1.3,3,2.9s-1.3,3-2.9,3s-3-1.3-3-2.9l0,0C20.2,23.8,21.5,22.4,23.2,22.4L23.2,22.4z"/>
	<path class="st1" d="M21.8,25.8c-0.9,0-1.5-0.6-1.5-1.5c0-0.9,0.6-1.5,1.5-1.5c0.9,0,1.5,0.6,1.5,1.5
		C23.3,25.1,22.6,25.8,21.8,25.8L21.8,25.8z"/>
	<path class="st1" d="M34.1,25.8c-0.9,0-1.5-0.6-1.5-1.5c0-0.9,0.6-1.5,1.5-1.5s1.5,0.6,1.5,1.5C35.6,25.1,34.9,25.8,34.1,25.8
		L34.1,25.8z"/>
</g>
</svg>
