<?xml version="1.0" encoding="utf-8"?>
<!-- Generator: Adobe Illustrator 25.2.0, SVG Export Plug-In . SVG Version: 6.00 Build 0)  -->
<svg version="1.1" id="Livello_1" xmlns="http://www.w3.org/2000/svg" xmlns:xlink="http://www.w3.org/1999/xlink" x="0px" y="0px"
	 viewBox="0 0 238.3 299.1" style="enable-background:new 0 0 238.3 299.1;" xml:space="preserve">
<style type="text/css">
	.st0{fill:#1A1A1A;}
</style>
<g id="Livello_2_1_">
	<g id="Livello_1-2">
		<path class="st0" d="M209.5,167.9c0,29.2,0,58.4,0,87.6c0,7.6,0.1,7.6-7.3,7.6c-56.1-0.5-112.3-1.1-168.4-1.6
			c-3.6,0-4.4-0.9-4.3-4.8c0.2-8.7-0.8-17.4-0.8-26.1c0-33,0.3-66,0.5-99c0.1-24.9,0.1-49.8,0.3-74.7c0-5.2,0.5-10.3,0.7-15.5
			c0.2-4.3,1.2-5.3,5.5-5.2c11.5,0.3,23,0.8,34.5,0.9c24.3,0.3,48.6,0.6,72.8,0.7c8.7,0,17.4-0.6,26.1-0.7c1.7,0,3.6,1.2,5,2.4
			c5.4,4.8,10.7,9.6,15.8,14.7c5.9,5.9,11.7,11.9,17.1,18.2c1.5,1.8,2.3,4.8,2.3,7.3c0.2,29.4,0.1,58.9,0.1,88.4L209.5,167.9z
			 M166.1,41.3H34c0,71.5-2.3,143.4-0.3,215.5L205,259V80.2c-2-0.4-4-0.6-6-0.8c-9.6-0.2-19.2-0.4-28.8-0.3c-3.2,0-4.2-0.9-4.2-4.1
			C166.2,63.9,166.1,52.7,166.1,41.3z M170.5,42.1V75h34.4L170.5,42.1z"/>
		<path class="st0" d="M125.3,113.7c-2.3,0.9-4.6,1.5-7.1,1.9c-3.4,0.7-7.8,1.3-13.1,1.9c-5.3,0.6-9.6,1-12.8,1.2
			c-0.3,3.6-0.6,14-1,31.2s-0.7,29.9-0.8,38.2c4.6-0.1,10.5-0.4,17.9-0.9c6.2-0.3,9.7-0.5,10.5-0.5c1.4,0,2.8,0.3,4.1,1
			c1.2,0.6,1.9,1.8,1.8,3.1c0.1,0.9-0.1,1.8-0.6,2.5c-0.4,0.5-1.2,0.8-2.5,0.8c-0.5,0-1.9-0.1-4.2-0.4c-1.4-0.3-2.8-0.5-4.3-0.5
			c-4,0-11.8,0.3-23.7,0.8c-0.4,0.5-0.9,1-1.4,1.3c-0.4,0.3-0.9,0.4-1.4,0.4s-1-0.1-1.5-0.4c-0.5-0.2-0.8-0.6-0.9-1.1l-5.7,0.6
			c-4.8,0.7-9.7,1.1-14.6,1.3c-2.8,0-4.9-0.6-6.3-1.8c-0.8-0.7-1.1-1.9-1.1-3.6c0.1-0.7,0.4-1.4,0.8-1.9c0.3-0.6,1-1.1,1.7-1.1
			c0.7,0.2,1.3,0.4,1.9,0.7c1,0.4,2.1,0.7,3.2,0.7c3.1,0,7.7-0.2,13.7-0.5l5.8-0.4l0.8-18.5c0.1-1.9,0.2-3.7,0.3-5.2
			c0.1-1.6,0.1-2.9,0.1-4l1.3-41.2c-8.7,0.6-12.9,0.9-12.5,0.9c-8.6,0.7-13.6,1-15.1,1s-2.9-0.5-4-1.4c-1.2-0.8-1.9-2.1-1.9-3.5
			c0-0.9,0.2-1.7,0.8-2.4c0.6-0.6,1.4-0.9,2.2-0.9c0.7,0,1.3,0,2,0.1l2,0.3c2,0.4,4,0.6,6.1,0.6c1.8,0,5.4-0.1,10.6-0.4
			s8.7-0.5,10.5-0.6c0-1,0.4-2,1.1-2.7s1.7-1.1,2.6-1.1c0.5,0,0.9,0.3,1.3,1c0.3,0.7,0.5,1.5,0.5,2.3c4.9-0.2,13.6-1.3,26.3-3.3
			c1.2-0.2,2.3-0.7,3.3-1.4c0.6-0.5,1.3-0.8,2.1-1.1c0.9,0,1.8,0.4,2.4,1c0.7,0.6,1.1,1.6,1.1,2.5
			C127.8,111.8,126.8,113.2,125.3,113.7z"/>
		<path class="st0" d="M175.2,104.5c0,1.7-0.1,5-0.3,9.9s-0.3,9.8-0.3,14.8c0,9.6,0.2,19.3,0.6,29.3c0.4,9.9,0.8,16.5,1,19.6
			c0,0.5,0,1.1,0.1,1.6c0.1,0.6,0.2,1.1,0.3,1.6c0.3,2.4,0.5,3.8,0.5,4.3c0,0.8-0.6,1.6-1.8,2.4c-0.8,0.6-1.8,1-2.8,1.1
			c-0.8,0.1-1.5-0.3-1.8-1.1c-0.3-0.9-0.5-2-0.4-3c0-4.6,0.1-9.4,0.4-14.5l0.1-7c0-2.4,0-5.4-0.1-9.3c-0.1-3.8-0.2-7-0.4-9.6
			c-4.3,13.8-9.1,25.2-14.5,34.2s-11.3,13.5-17.5,13.5c-2.9,0-5.3-1.3-7.2-4c-2-2.7-3-6.5-3-11.6c0-6.6,2.2-13.9,6.7-21.7
			c4.2-7.4,9.3-14.2,15.4-20.2c5.7-5.6,10-8.4,12.8-8.4c2.7,0,4,0.9,4,2.6c-0.1,1.4-0.5,2.8-1.2,4.1c-0.8,1.5-1.6,2.9-2.6,4.2
			s-1.5,1.9-1.7,1.9s-0.4-0.1-0.6-0.2c-0.2-0.1-0.3-0.2-0.3-0.4c0.1-0.7,0.3-1.5,0.6-2.1s0.5-1.3,0.6-2c0-0.3,0-0.6-0.1-0.9
			c-0.1-0.2-0.3-0.3-0.8-0.3c-1.8,0-4.9,2.4-9.5,7.2c-4.8,5.2-9,10.9-12.3,17.2c-3.6,6.6-5.4,12.8-5.4,18.5c0,2,0.4,3.9,1.3,5.7
			c0.7,1.7,2.4,2.7,4.2,2.6c6.1,0,11.8-5.2,17.1-15.6c5.6-11.3,10.2-23.2,13.7-35.3l-0.3-10.6c-0.3-9.3-0.4-14.3-0.4-14.9
			c-0.1-3.6,0.1-7.2,0.6-10.8c0.1-0.6,0.3-1.2,0.6-1.8c0.3-0.4,0.8-0.6,1.3-0.5c0.9,0,1.8,0.3,2.5,0.8c0.8,0.5,1.3,1.3,1.3,2.2
			L175.2,104.5z"/>
	</g>
</g>
</svg>
