<?xml version="1.0" encoding="utf-8"?>
<!-- Generator: Adobe Illustrator 25.2.0, SVG Export Plug-In . SVG Version: 6.00 Build 0)  -->
<svg version="1.1" id="Livello_1" xmlns="http://www.w3.org/2000/svg" xmlns:xlink="http://www.w3.org/1999/xlink" x="0px" y="0px"
	 viewBox="0 0 238.3 299.1" style="enable-background:new 0 0 238.3 299.1;" xml:space="preserve">
<style type="text/css">
	.st0{fill:#1A1A1A;}
</style>
<g id="Livello_2_1_">
	<g id="Livello_1-2">
		<path class="st0" d="M209.5,167.9c0,29.2,0,58.4,0,87.6c0,7.6,0.1,7.6-7.3,7.6c-56.1-0.5-112.3-1.1-168.4-1.6
			c-3.6,0-4.4-0.9-4.3-4.8c0.2-8.7-0.8-17.4-0.8-26.1c0-33,0.3-66,0.5-99c0.1-24.9,0.1-49.8,0.3-74.7c0-5.2,0.5-10.3,0.7-15.5
			c0.2-4.3,1.2-5.3,5.5-5.2c11.5,0.3,23,0.8,34.5,0.9c24.3,0.3,48.6,0.6,72.8,0.7c8.7,0,17.4-0.6,26.1-0.7c1.7,0,3.6,1.2,5,2.4
			c5.4,4.8,10.7,9.6,15.8,14.7c5.9,5.9,11.7,11.9,17.1,18.2c1.5,1.8,2.3,4.8,2.3,7.3c0.2,29.4,0.1,58.9,0.1,88.4L209.5,167.9z
			 M166.1,41.3H34c0,71.5-2.3,143.4-0.3,215.5L205,259V80.2c-2-0.4-4-0.6-6-0.8c-9.6-0.2-19.2-0.4-28.8-0.3c-3.2,0-4.2-0.9-4.2-4.1
			C166.2,63.9,166.1,52.7,166.1,41.3z M170.5,42.1V75h34.4L170.5,42.1z"/>
		<path class="st0" d="M112.5,134.9c-4,3.6-9.7,6.9-16.9,10.1c-2.6,1.2-5.2,2.3-7.9,3.3c-2.7,1-4.5,1.6-5.3,1.9
			c0.4,10.2,0.6,19,0.6,26.2c-0.1,1.9,0.2,3.9,0.8,5.7c0.4,0.9,0.7,1.9,0.8,2.8c0,1-0.5,1.8-1.4,2.3c-0.8,0.6-1.8,0.9-2.9,0.9
			c-1.3,0-2.1-0.9-2.4-2.6c0-0.2-0.1-0.9-0.3-2.3c-0.2-1.9-0.4-3.8-0.3-5.7c0-6.6-0.3-17.3-0.8-32.2c-0.2-7.6-0.4-12.9-0.4-16.1
			c0-2.7,0-5.2,0.1-7.5s0.1-3.9,0.1-4.7c-4.7,1.2-9.2,2.7-13.7,4.4c-1.3,0.6-3,1.5-5.3,2.9c-1,0.6-2,1.1-3,1.6
			c-0.7,0.4-1.4,0.7-2.2,0.8c-0.7,0-1.3-0.3-1.8-0.9s-0.8-1.4-0.8-2.1c0-1.1,1.6-2.5,4.8-4.1c3.8-1.9,7.6-3.4,11.6-4.7
			c4.2-1.4,8.4-2.5,12.7-3.4c5-0.9,10-1.3,15.1-1.3c7.6,0,13.6,1,18,3s6.5,4.9,6.6,8.9C118.5,127.1,116.5,131.3,112.5,134.9z
			 M107.3,117.1c-4.3-1.3-8.8-1.9-13.3-1.8c-4,0-7.9,0.3-11.8,0.8c-0.1,0.7-0.2,2.2-0.3,4.7c-0.1,2.4-0.2,4.7-0.2,6.9l0.1,9.2
			c0.1,2,0.1,4.6,0.1,7.7c1.8-0.2,5.5-1.4,11.2-3.8c5-2.1,9.7-4.8,14-8.1c3.8-3,5.7-6.1,5.7-9.5
			C112.7,120.2,110.9,118.2,107.3,117.1z"/>
		<path class="st0" d="M164.6,176.1c-3.3,3.6-7.3,6.4-11.8,8.2c-4.8,2-10,3.1-15.2,3.1c-3.6,0-6-0.3-7.3-1c-1.1-0.5-1.9-1.6-1.9-2.8
			c0-0.8,1-2.1,2.9-4s3.2-2.8,3.9-2.8c1,0,1.5,0.2,1.5,0.6c0,0.4-0.3,0.8-0.6,1c-0.4,0.3-0.6,0.6-0.6,0.9c0,0.3,0.5,0.7,1.6,1
			c1.2,0.4,2.5,0.5,3.8,0.5c3.6,0,7.2-0.7,10.6-2c3.2-1.1,6.2-2.8,8.8-5.1c2.3-2.1,3.4-4.3,3.4-6.7c0.1-2-0.7-4-2.1-5.4
			c-1.5-1.4-3.3-2.4-5.3-3c-2.1-0.6-5.7-1.5-10.8-2.7c-5.5-1.3-9.8-2.4-12.9-3.3c-2.7-0.8-5.2-2-7.4-3.7c-1.8-1.3-2.8-3.4-2.8-5.6
			c0-4,2-7.7,5.9-11.1c4-3.4,8.6-6.1,13.5-7.9c5.1-1.9,9.1-2.9,11.8-2.9c2.9,0,4.3,0.8,4.3,2.5c0,1.2-0.4,2.3-1,3.3
			c-0.6,1.2-1.8,1.9-3,1.8c-0.6,0-1.2-0.2-1.6-0.6c-0.5-0.4-1.1-0.6-1.8-0.6c-1.7,0-4.3,0.5-7.9,1.6c-3.5,1.1-6.9,2.7-9.9,4.9
			c-2.9,2.2-4.4,4.8-4.4,7.9c0,2,1.2,3.5,3.5,4.5s6.6,2.2,12.9,3.6c0.7,0.2,1.5,0.4,2.3,0.6c0.7,0.1,1.4,0.3,2,0.4
			c6.5,1.5,11.4,3.2,14.9,5.2c3.3,1.6,5.3,5,5.2,8.7C169,169.1,167.5,172.7,164.6,176.1z"/>
	</g>
</g>
</svg>
