<?xml version="1.0" encoding="utf-8"?>
<!-- Generator: Adobe Illustrator 25.2.0, SVG Export Plug-In . SVG Version: 6.00 Build 0)  -->
<svg version="1.1" id="Livello_1" xmlns="http://www.w3.org/2000/svg" xmlns:xlink="http://www.w3.org/1999/xlink" x="0px" y="0px"
	 viewBox="0 0 765.8 456.8" style="enable-background:new 0 0 765.8 456.8;" xml:space="preserve">
<style type="text/css">
	.st0{fill:#FF8C00;}
	.st1{fill:#1A1A1A;}
</style>
<path class="st0" d="M727.2,302.4c-9.6-7.7-20.2-15.4-31.8-22.9c5.1,0.9,10.1,1.7,15.3,2.5c10.2,1.7,23.2-1.3,19.9-4
	c-7.9-6.6-16.9-13.1-26.8-19.6c1.4-0.7,1.6-1.5,0-2.5c-6.7-4-14.3-7.9-23.5-11.6c-3.3-1.3-8.1-1.8-12.5-1.6
	c-1.8-0.6-3.7-1.2-5.7-1.7c-10.8-2.7-25.6-1.9-31.5,1.1c-1.9-0.4-4-0.7-6.3-0.7c-24.5-10.9-52.3-21.3-83.8-31
	c-2.2,4.1-5.3,7.8-8.8,11.3c12.8,5.7,26.1,11.4,40.7,16.9c-11.5-0.5-23.2-0.7-35-0.5c-5.3,0.1-9.3,0.8-11.4,1.8
	c-3.1-0.6-6.3-1.2-9.4-1.8c-0.5,2.8-1,5.6-1.5,8.3c0.1,0,0.3,0,0.4,0.1c12.1,2.5,23.4,5.1,33.7,7.6c16.3,4,31.4,8.2,44.9,12.8
	c-6.2-0.6-12.7-1-19.3-1.3c-18.5-2.2-35.9-4.9-51.8-8.1c-3.2-1.8-6.3-3.5-9.2-5.3c-2.4,11.4-5.4,22.6-10.1,33.4
	c-3.4,7.8-10.6,12.8-19.1,15c10.1,5.7,20,11.9,29.6,18.1c19,3.2,38.5,6.2,58.7,8.9c24.9,3.4,55.9,8.4,85.3,6.8
	c9.4-0.5,11.5-3.3,7.9-5.1c-20.5-10.7-43.2-21.1-68.1-31.1c1.3,0.1,2.6,0.2,3.9,0.3c12.3,3.2,25.3,6.2,38.9,9
	c13.4,2.8,31.6-1.8,19.1-5c-0.6-0.2-1.3-0.3-1.9-0.5c0.2,0,0.4,0,0.6,0c16.7,2.9,34.5,5.4,55.7,5.1
	C722.9,306.8,729.9,304.6,727.2,302.4z M654.4,275.8c1,1,1.9,2,2.8,3c-0.6-0.1-1.2-0.2-1.8-0.3c-2-1.1-4.7-2.2-7-3.3
	c-3.1-1.4-6.4-2.8-9.7-4.2C644.1,272.6,649.4,274.2,654.4,275.8z M564.7,272.1c7.6,1,15.2,2.1,22.6,3.2c-10.7-1-21.4-2-32-3
	c-0.2-0.1-0.5-0.2-0.8-0.3C558,272,561.4,272.1,564.7,272.1z M611.7,317.7c6.7,3.1,13.2,6.2,19.5,9.4c-8.5-0.8-16.9-2-23.7-2.9
	c-12.1-1.5-24-3.1-35.7-4.7c-13.1-1.9-25.9-3.9-38.5-5.9c-0.3-0.1-0.6-0.3-1.1-0.4c-3.5-1.1-7.1-2.2-10.8-3.3
	c14,2.2,28.4,4.2,43.3,6c3.2,0.4,6.7,0.4,9.9,0.2c6.2,1,12.5,2.1,18.8,3.1C600.4,320.1,608,319.2,611.7,317.7z M595.3,310.3
	c-5.5-1.2-11-2.3-16.6-3.4c2.5-0.1,4.7-0.4,6.5-0.9C588.6,307.5,591.9,308.9,595.3,310.3z M573.3,245.6c8.5,0.4,16.8,1.1,24.8,1.9
	c7.4,2.4,15,4.7,23,7c2.5,1.3,5,2.5,7.5,3.8C609.5,254.2,591.1,250,573.3,245.6z M666.1,294.3c-0.4,0.2-0.7,0.3-1,0.4
	c-6.6-1.3-12.9-2.6-18.9-3.6c-7.9-1.4-15.7-2.9-23.6-4.4c4,0,8.5-0.1,12.9-0.2c8.6,0.6,17.3,1.2,26,1.7c0.7,0,1.4,0.1,2,0.1
	c0.4,0.8,0.8,1.6,1.2,2.4C665,291.2,667.2,293.9,666.1,294.3z M675.9,267.6c-0.8-0.5-1.7-1-2.5-1.4c3.3,0.4,6.6,0.7,10.2,0.9
	c1.4,0.1,2.7,0.1,4,0.1c1.6,1.1,3.1,2.2,4.6,3.3C686.7,269.5,681.3,268.6,675.9,267.6z M689.9,298.6c0.8-0.4,1.5-0.8,2-1.2
	c0.7,0.5,1.4,1.1,2.1,1.6C692.6,298.9,691.2,298.8,689.9,298.6z"/>
<path class="st0" d="M723.8,373.9c-5.5-3.8-11.5-7.6-18.2-11.3c2.8,0.5,5.6,1,8.5,1.5c5.7,1,12.8,0,10.9-1.4
	c-4.5-3.2-9.6-6.5-15.3-9.7c0.7-0.3,0.8-0.7-0.1-1.1c-3.8-2-8.1-4-13.3-5.9c-1.9-0.7-4.5-1-6.9-1.1c-1-0.3-2.1-0.6-3.2-0.9
	c-6.1-1.5-14.2-1.5-17.4-0.3c-1-0.2-2.2-0.4-3.5-0.5c-13.8-5.6-29.4-11.1-47.1-16.3c-1.1,1.8-2.8,3.4-4.6,5c7.2,3,19,2.7,27.1,5.5
	c-6.4-0.5-11.7-3.7-18.2-3.9c-2.9-0.1-5.5-12.6-10.3-5.3c-1.7-0.4-10.2-1.3-11.9-1.7c-0.2,1.3-27-5.2-27.2-3.9
	c-83.6-21.2-61.8,5.6-61.7,5.6c6.7,1.4,106.9,17.4,112.7,18.8c9.1,2.2,17.6,4.6,25.1,7c-3.4-0.4-7-0.8-10.7-1.1
	c-10.3-1.5-19.9-3.1-28.8-5c-1.8-0.9-95.6-20.6-97.2-21.5c-1,5.2-15.8,3.1-18.1,7.9c-1.7,3.5,99.9,31.6,95.2,32.4
	c5.7,2.9,11.3,6,16.8,9.1c10.6,1.9,21.4,3.8,32.6,5.5c13.8,2.2,31.1,5.3,47.3,5.2c5.2,0,6.3-1.2,4.2-2.2
	c-11.6-5.4-24.4-10.8-38.4-16c0.7,0.1,1.4,0.2,2.1,0.2c6.9,1.8,14.1,3.5,21.7,5.1c7.5,1.6,17.4-0.1,10.4-1.8
	c-0.4-0.1-0.7-0.2-1.1-0.3c0.1,0,0.2,0,0.3,0c9.3,1.8,19.2,3.3,30.9,3.7C721.5,375.8,725.3,375,723.8,373.9z M682.9,359.9
	c0.6,0.5,1.1,1,1.6,1.5c-0.3-0.1-0.7-0.1-1-0.2c-1.1-0.6-2.7-1.1-3.9-1.7c-1.7-0.7-3.6-1.4-5.5-2.2
	C677.1,358.2,680.1,359,682.9,359.9z M633.3,356c4.2,0.7,8.4,1.3,12.6,2c-6-0.7-11.9-1.4-17.7-2.2c-0.1-0.1-0.3-0.1-0.4-0.2
	C629.6,355.8,631.4,355.9,633.3,356z M660.4,378.1c3.8,1.6,7.5,3.2,11,4.8c-4.7-0.6-9.4-1.4-13.1-1.9c-6.7-1-13.3-2-19.8-3.1
	c-7.3-1.2-14.4-2.4-21.4-3.7c-0.2-0.1-0.4-0.1-0.6-0.2c-2-0.6-4-1.2-6.1-1.8c7.8,1.3,15.8,2.6,24.1,3.8c1.8,0.3,3.7,0.4,5.5,0.3
	c3.4,0.6,6.9,1.3,10.4,1.9C654.2,378.9,658.3,378.7,660.4,378.1z M651.1,374.3c-3.1-0.7-6.1-1.3-9.2-2c1.4,0,2.6-0.1,3.6-0.2
	C647.3,372.8,649.2,373.6,651.1,374.3z M637.3,344c4.7,0.4,9.3,0.9,13.8,1.5c4.1,1.3,8.4,2.5,12.9,3.8c1.4,0.6,2.8,1.3,4.2,1.9
	C657.6,348.9,647.3,346.5,637.3,344z M689.8,368.7c-0.2,0.1-0.4,0.1-0.5,0.2c-3.7-0.7-7.2-1.5-10.5-2.1c-4.4-0.9-8.8-1.7-13.1-2.6
	c2.2,0.1,4.7,0.2,7.1,0.2c4.8,0.5,9.6,1,14.4,1.4c0.4,0,0.8,0.1,1.1,0.1c0.2,0.4,0.5,0.8,0.7,1.1
	C689.1,367.2,690.4,368.5,689.8,368.7z M694.6,356.7c-0.5-0.2-0.9-0.5-1.4-0.7c1.8,0.3,3.7,0.5,5.6,0.7c0.8,0.1,1.5,0.1,2.2,0.2
	c0.9,0.5,1.7,1.1,2.6,1.6C700.6,357.8,697.6,357.3,694.6,356.7z M703,371.3c0.4-0.1,0.8-0.3,1.1-0.5c0.4,0.3,0.8,0.5,1.2,0.8
	C704.6,371.5,703.8,371.4,703,371.3z"/>
<g>
	<path class="st1" d="M391.9,176.8c28.3,0.3,56.7-0.3,84.9,1.5c21.8,1.4,23.6-1.1,19.3-21.3c-5.1-23.6-9.9-47.3-14.8-71
		c0-0.7-0.2-1.3-0.4-2c-1.5-4.3-6.1-6.6-10.4-5.2c-6.2,1.3-6.6,5.9-5.4,11c2.7,11.3,5.3,22.6,8,33.9c1.6,6.6,3.4,13.2,5.1,19.8
		c-2.7,0.1-3.4-0.3-3.8-0.8c-16.8-25.3-38-47.4-62.7-65.1C374.2,51.1,333,34.1,286.8,32.3c-42.9-1.7-82.1,8.7-114.5,39
		c-2.8,2.4-6.4,3.8-10.1,3.8c-25.6-1-50.9,6-72.4,19.9c-32.4,20.7-53.6,50.5-68.2,85.3c-4.1,10.6-7.5,21.4-10.1,32.4
		c-0.2,0.6-0.4,1.2-0.5,1.9c-0.7,4.6,2.5,8.8,7,9.5c5.8,1.5,8-2.5,9.4-7c1-2.8,1.4-5.7,2.2-8.6C41.9,165.2,64,129,103.8,105.8
		c15.8-9.2,33.8-14,52.1-13.7c-2.8,7.1-5.6,13.4-7.8,19.8c-1,2.7-1.8,5.5-2.5,8.4c-11.1,46.6,17.6,93.4,64.2,104.5
		c29.7,7.1,55.1-11,57.4-41.2c2.1-27.1-7.5-50.3-25-70.6c-13.9-16.3-31.8-26.8-52.7-33.5c1.3-1.1,1.9-1.8,2.6-2.3
		c28.8-21.4,61.8-29.8,96.9-27.9c48.5,2.6,90.5,22.2,127.5,53.2c19.6,16.5,36.4,36,49.7,57.9c-4.7-0.2-7.8-0.2-10.9-0.3
		c-21.2,0-42.3-0.1-63.6,0.2c-7.6,0-11.8,3.9-11.3,9.7C381,177.4,386.5,176.8,391.9,176.8z M248.7,158.7c3,10.3,2.5,21.3-1.5,31.2
		c-6.2,15.5-23.5,23.3-39.2,17.6c-52.4-17.8-60.9-83.3-32.4-114.1C211.4,102,237.6,121.8,248.7,158.7z"/>
	<path class="st1" d="M382.3,385.1c0,4.2,3.4,7.6,7.6,7.6H477c4.2,0,7.6-3.4,7.6-7.6s-3.4-7.6-7.6-7.6h-87.1
		C385.7,377.5,382.3,380.9,382.3,385.1z"/>
	<path class="st1" d="M525,409.3H389.9c-4.2,0-7.6,3.4-7.6,7.6s3.4,7.6,7.6,7.6H525c4.2,0,7.6-3.4,7.6-7.6S529.2,409.3,525,409.3z"
		/>
	<path class="st1" d="M749,257.2l-228.1-59.5c-2-0.5-4.1-0.2-5.8,0.8s-3,2.6-3.5,4.6l-34.4,131.7c-1,4.1,1.4,8.3,5.5,9.3l228.1,59.6
		c0.6,0.1,1.3,0.2,1.9,0.2c3.5,0,6.5-2.4,7.3-5.8l34.5-131.8C755.4,262.3,753,258.2,749,257.2z M709.5,378.1l-56-80l82.7-22.8
		L709.5,378.1z M617.9,292.3l-73.6-72.7l173.3,45.2L617.9,292.3z M610.4,306.1c1.5,1.4,3.4,2.2,5.4,2.2c0.7,0,1.4-0.1,2-0.3
		l20.1-5.6l56.7,81.2l-188.2-49.1l89.2-43.1L610.4,306.1z M522.9,219.8l61.2,60.4l-88,42.6L522.9,219.8z"/>
</g>
</svg>
